<?xml version="1.0" encoding="UTF-8" standalone="no"?>
<!-- Created with Inkscape (http://www.inkscape.org/) -->

<svg
   width="100mm"
   height="40mm"
   viewBox="0 0 99.999992 39.999999"
   version="1.1"
   id="svg5"
   xml:space="preserve"
   inkscape:version="1.4.2 (ebf0e940d0, 2025-05-08)"
   sodipodi:docname="iacap-white.svg"
   inkscape:export-filename="iacap-black.png"
   inkscape:export-xdpi="600"
   inkscape:export-ydpi="600"
   xmlns:inkscape="http://www.inkscape.org/namespaces/inkscape"
   xmlns:sodipodi="http://sodipodi.sourceforge.net/DTD/sodipodi-0.dtd"
   xmlns="http://www.w3.org/2000/svg"
   xmlns:svg="http://www.w3.org/2000/svg"><sodipodi:namedview
     id="namedview7"
     pagecolor="#ffffff"
     bordercolor="#000000"
     borderopacity="0.25"
     inkscape:showpageshadow="2"
     inkscape:pageopacity="0.0"
     inkscape:pagecheckerboard="0"
     inkscape:deskcolor="#d1d1d1"
     inkscape:document-units="mm"
     showgrid="false"
     showguides="true"
     inkscape:zoom="3.6110965"
     inkscape:cx="159.36988"
     inkscape:cy="93.184993"
     inkscape:window-width="2560"
     inkscape:window-height="1374"
     inkscape:window-x="0"
     inkscape:window-y="0"
     inkscape:window-maximized="1"
     inkscape:current-layer="layer1"><sodipodi:guide
       position="-14.525199,46.322856"
       orientation="0,793.70079"
       id="guide450"
       inkscape:locked="false" /><sodipodi:guide
       position="195.4748,46.322856"
       orientation="1122.5197,0"
       id="guide452"
       inkscape:locked="false" /><sodipodi:guide
       position="195.4748,-250.67713"
       orientation="0,-793.70079"
       id="guide454"
       inkscape:locked="false" /><sodipodi:guide
       position="-14.525199,-250.67713"
       orientation="-1122.5197,0"
       id="guide456"
       inkscape:locked="false" /><sodipodi:guide
       position="87.149011,34.609255"
       orientation="0,-1"
       id="guide458"
       inkscape:locked="false" /><sodipodi:guide
       position="84.923415,5.3252082"
       orientation="0,-1"
       id="guide460"
       inkscape:locked="false" /><sodipodi:guide
       position="99.916848,-1.9372349"
       orientation="0,-1"
       id="guide462"
       inkscape:locked="false" /><sodipodi:guide
       position="-4.5516849,-26.827598"
       orientation="1,0"
       id="guide208"
       inkscape:locked="false" /><sodipodi:guide
       position="85.05749,-13.474071"
       orientation="1,0"
       id="guide239"
       inkscape:locked="false" /><sodipodi:guide
       position="32.327416,-18.116383"
       orientation="0,-1"
       id="guide2076"
       inkscape:locked="false" /></sodipodi:namedview><defs
     id="defs2"><rect
       x="37.98811"
       y="196.59825"
       width="308.2128"
       height="41.121147"
       id="rect258" /><rect
       x="69.058022"
       y="272.38824"
       width="557.039"
       height="101.38917"
       id="rect1794" /></defs><g
     inkscape:label="Layer 1"
     inkscape:groupmode="layer"
     id="layer1"
     transform="translate(-14.5252,-65.417467)"><text
       xml:space="preserve"
       transform="matrix(0.26458333,0,0,0.26458333,5.0250093,29.487635)"
       id="text256"
       style="white-space:pre;shape-inside:url(#rect258);display:inline;fill:#000000" /><path
       d="M 19.91619,100.86859 V 71.389391 h 2.651886 v 29.479199 z"
       id="path13256"
       style="font-size:42.1014px;line-height:1.25;font-family:Abel;-inkscape-font-specification:Abel;letter-spacing:0px;word-spacing:0px;stroke-width:0.1;fill:#ffffff;fill-opacity:1;stroke:#000000;stroke-opacity:1;stroke-dasharray:none" /><path
       id="path13311"
       style="font-size:42.1014px;line-height:1.25;font-family:Abel;-inkscape-font-specification:Abel;letter-spacing:0px;word-spacing:0px;stroke-width:0.1;fill:#ffffff;fill-opacity:1;stroke:#000000;stroke-opacity:1;stroke-dasharray:none"
       d="m 36.043064,71.389336 -8.634099,29.479334 h 2.754871 l 1.932182,-6.866244 0.719336,-2.528527 3.86488,-13.588318 0.08217,-1.089856 0.08216,1.089856 3.885551,13.588318 0.698665,2.528527 1.95337,6.866244 h 2.733683 L 37.440911,71.389336 Z" /><path
       id="path13262"
       style="font-size:42.1014px;line-height:1.25;font-family:Abel;-inkscape-font-specification:Abel;letter-spacing:0px;word-spacing:0px;stroke-width:0.1;fill:#ffffff;fill-opacity:1;stroke:#000000;stroke-opacity:1;stroke-dasharray:none"
       d="m 78.688523,71.389336 -8.634099,29.479334 h 2.754871 l 1.932182,-6.866244 0.719852,-2.528527 3.864364,-13.588318 0.08268,-1.089856 0.08217,1.089856 3.885034,13.588318 0.699182,2.528527 1.952853,6.866244 h 2.7342 L 80.08637,71.389336 Z" /><path
       d="m 66.585758,94.043561 q 0,1.500685 -0.575603,2.816354 -0.555046,1.315668 -1.541795,2.30242 -0.986749,0.986755 -2.302413,1.562355 -1.315665,0.55505 -2.816345,0.55505 h -2.096841 q -1.500679,0 -2.836901,-0.55505 -1.315665,-0.5756 -2.302413,-1.562355 -0.986749,-0.986752 -1.562353,-2.30242 -0.555046,-1.315669 -0.555046,-2.816354 V 78.214422 q 0,-1.500684 0.555046,-2.816353 0.575604,-1.315669 1.562353,-2.30242 0.986748,-0.986752 2.302413,-1.5418 1.336222,-0.575605 2.836901,-0.575605 h 2.096841 q 1.50068,0 2.816345,0.575605 1.315664,0.555048 2.302413,1.5418 0.986749,0.986751 1.541795,2.30242 0.575603,1.315669 0.575603,2.816353 v 1.192325 l -2.651886,0.411147 v -1.603472 q 0,-0.986751 -0.370031,-1.829602 -0.370031,-0.863407 -1.007306,-1.500684 -0.637275,-0.637277 -1.50068,-1.007309 -0.842848,-0.370032 -1.829597,-0.370032 h -1.850153 q -0.986748,0 -1.850154,0.370032 -0.842847,0.370032 -1.500679,1.007309 -0.637275,0.637277 -1.007306,1.500684 -0.370031,0.842851 -0.370031,1.829602 v 15.829139 q 0,0.986752 0.370031,1.850159 0.370031,0.842851 1.007306,1.500685 0.657832,0.637277 1.500679,1.007309 0.863406,0.370032 1.850154,0.370032 h 1.850153 q 0.986749,0 1.829597,-0.370032 0.863405,-0.370032 1.50068,-1.007309 0.637275,-0.657834 1.007306,-1.500685 0.370031,-0.863407 0.370031,-1.850159 V 92.44009 l 2.651886,0.431704 z"
       id="path13260"
       style="font-size:42.1014px;line-height:1.25;font-family:Abel;-inkscape-font-specification:Abel;letter-spacing:0px;word-spacing:0px;fill:#ffffff;stroke:#000000;stroke-width:0.1;fill-opacity:1;stroke-opacity:1;stroke-dasharray:none" /><path
       id="path14528"
       style="fill:#ffffff;stroke:#000000;stroke-width:2;stroke-linecap:round;stroke-linejoin:round;paint-order:stroke fill markers"
       d="m 67.928608,79.908762 a 2.6559661,2.6559741 0 0 1 -2.655966,2.655974 2.6559661,2.6559741 0 0 1 -2.655966,-2.655974 2.6559661,2.6559741 0 0 1 2.655966,-2.655975 2.6559661,2.6559741 0 0 1 2.655966,2.655975 z" /><path
       id="circle14624"
       style="fill:#ffffff;stroke:#000000;stroke-width:2;stroke-linecap:round;stroke-linejoin:round;paint-order:stroke fill markers"
       d="m 68.02253,91.688798 a 2.6559661,2.6559741 0 0 1 -2.655966,2.655975 2.6559661,2.6559741 0 0 1 -2.655966,-2.655975 2.6559661,2.6559741 0 0 1 2.655966,-2.655974 2.6559661,2.6559741 0 0 1 2.655966,2.655974 z" /><path
       id="circle14662"
       style="stroke:#000000;stroke-width:2;stroke-linecap:round;stroke-linejoin:round;paint-order:stroke fill markers"
       d="m 53.971333,91.688798 a 2.6559661,2.6559741 0 0 1 -2.655966,2.655975 2.6559661,2.6559741 0 0 1 -2.655966,-2.655975 2.6559661,2.6559741 0 0 1 2.655966,-2.655974 2.6559661,2.6559741 0 0 1 2.655966,2.655974 z" /><path
       id="path13264"
       style="font-size:42.1014px;line-height:1.25;font-family:Abel;-inkscape-font-specification:Abel;letter-spacing:0px;word-spacing:0px;stroke-width:0.1;fill:#ffffff;fill-opacity:1;stroke:#000000;stroke-opacity:1;stroke-dasharray:none"
       d="m 92.544008,71.389336 v 29.479334 h 2.652034 V 89.541717 87.013188 73.917865 h -0.0062 v -2.528528 z m 5.297867,0 v 2.528528 h 3.911905 c 0.65783,0 1.26797,0.123315 1.82986,0.370003 0.57561,0.246687 1.07584,0.589287 1.50069,1.027844 0.43855,0.424851 0.78115,0.925079 1.02784,1.500684 0.24669,0.5619 0.37,1.172028 0.37,1.829863 v 3.659208 c 0,0.657834 -0.12331,1.274411 -0.37,1.850017 -0.24669,0.561899 -0.58929,1.055161 -1.02784,1.480013 -0.42485,0.424851 -0.92508,0.760485 -1.50069,1.007172 -0.56189,0.246689 -1.17203,0.37052 -1.82986,0.37052 h -3.905703 v 2.528528 h 4.029213 c 1.00045,0 1.93925,-0.184973 2.81636,-0.555005 0.89082,-0.383736 1.66503,-0.90486 2.32286,-1.562695 0.65783,-0.657834 1.17199,-1.425072 1.54202,-2.302185 0.38374,-0.877112 0.57568,-1.81591 0.57568,-2.816366 v -3.659208 c 0,-1.000456 -0.19194,-1.939253 -0.57568,-2.816365 -0.37003,-0.890818 -0.88419,-1.665021 -1.54202,-2.322856 -0.65783,-0.657834 -1.43204,-1.171993 -2.32286,-1.542025 -0.87711,-0.383736 -1.81591,-0.575675 -2.81636,-0.575675 z" /><path
       id="circle14848"
       style="fill:#ffffff;stroke:#000000;stroke-width:2;stroke-linecap:round;stroke-linejoin:round;paint-order:stroke fill markers"
       d="m 103.82274,73.13223 a 2.6559661,2.6559741 0 0 1 -2.65596,2.655974 2.6559661,2.6559741 0 0 1 -2.655967,-2.655974 2.6559661,2.6559741 0 0 1 2.655967,-2.655974 2.6559661,2.6559741 0 0 1 2.65596,2.655974 z" /><path
       id="circle14850"
       style="stroke:#000000;stroke-width:2;stroke-linecap:round;stroke-linejoin:round;paint-order:stroke fill markers"
       d="m 103.82274,88.147806 a 2.6559661,2.6559741 0 0 1 -2.65596,2.655974 2.6559661,2.6559741 0 0 1 -2.655967,-2.655974 2.6559661,2.6559741 0 0 1 2.655967,-2.655974 2.6559661,2.6559741 0 0 1 2.65596,2.655974 z" /></g></svg>
