<?xml version="1.0" encoding="UTF-8" standalone="no"?>
<!-- Created with Inkscape (http://www.inkscape.org/) -->

<svg
   width="109.69153mm"
   height="59.224773mm"
   viewBox="0 0 109.69152 59.224774"
   version="1.1"
   id="svg5"
   xml:space="preserve"
   inkscape:version="1.2.2 (b0a8486541, 2022-12-01)"
   sodipodi:docname="iacap.svg"
   inkscape:export-filename="joint-logo2480.png"
   inkscape:export-xdpi="310.94031"
   inkscape:export-ydpi="310.94031"
   xmlns:inkscape="http://www.inkscape.org/namespaces/inkscape"
   xmlns:sodipodi="http://sodipodi.sourceforge.net/DTD/sodipodi-0.dtd"
   xmlns="http://www.w3.org/2000/svg"
   xmlns:svg="http://www.w3.org/2000/svg"><sodipodi:namedview
     id="namedview7"
     pagecolor="#ffffff"
     bordercolor="#000000"
     borderopacity="0.25"
     inkscape:showpageshadow="2"
     inkscape:pageopacity="0.0"
     inkscape:pagecheckerboard="0"
     inkscape:deskcolor="#d1d1d1"
     inkscape:document-units="mm"
     showgrid="false"
     showguides="true"
     inkscape:zoom="2.5534307"
     inkscape:cx="261.60882"
     inkscape:cy="11.161454"
     inkscape:window-width="2560"
     inkscape:window-height="1403"
     inkscape:window-x="2560"
     inkscape:window-y="0"
     inkscape:window-maximized="1"
     inkscape:current-layer="layer1"><sodipodi:guide
       position="-0.01693862,59.165118"
       orientation="0,793.70079"
       id="guide450"
       inkscape:locked="false" /><sodipodi:guide
       position="209.98305,59.165118"
       orientation="1122.5197,0"
       id="guide452"
       inkscape:locked="false" /><sodipodi:guide
       position="209.98305,-237.83487"
       orientation="0,-793.70079"
       id="guide454"
       inkscape:locked="false" /><sodipodi:guide
       position="-0.01693862,-237.83487"
       orientation="-1122.5197,0"
       id="guide456"
       inkscape:locked="false" /><sodipodi:guide
       position="101.65727,47.451508"
       orientation="0,-1"
       id="guide458"
       inkscape:locked="false" /><sodipodi:guide
       position="99.431675,18.167458"
       orientation="0,-1"
       id="guide460"
       inkscape:locked="false" /><sodipodi:guide
       position="114.42512,10.90502"
       orientation="0,-1"
       id="guide462"
       inkscape:locked="false" /><sodipodi:guide
       position="9.9565752,-13.985341"
       orientation="1,0"
       id="guide208"
       inkscape:locked="false" /><sodipodi:guide
       position="99.56575,-0.63181595"
       orientation="1,0"
       id="guide239"
       inkscape:locked="false" /></sodipodi:namedview><defs
     id="defs2"><rect
       x="69.058022"
       y="272.38824"
       width="557.039"
       height="101.38917"
       id="rect1794" /></defs><g
     inkscape:label="Layer 1"
     inkscape:groupmode="layer"
     id="layer1"
     transform="translate(-0.01693861,0.05965342)"><g
       id="g252"><rect
         style="fill:#ffffff;stroke:#ffffff;stroke-width:0.02;stroke-linecap:round;stroke-linejoin:round;stroke-miterlimit:4;stroke-dasharray:none;stroke-opacity:1;paint-order:stroke fill markers"
         id="rect25885"
         width="109.67153"
         height="59.204773"
         x="0.026938614"
         y="-0.049653422" /><text
         xml:space="preserve"
         transform="matrix(0.21089226,0,0,0.21089226,-4.7280768,-13.496269)"
         id="text1792"
         style="font-style:normal;font-variant:normal;font-weight:normal;font-stretch:normal;font-size:16px;line-height:1.25;font-family:National;-inkscape-font-specification:National;letter-spacing:0px;word-spacing:0px;white-space:pre;shape-inside:url(#rect1794);display:inline;fill:#000000;fill-opacity:1;stroke:none"><tspan
           x="69.058594"
           y="290.58618"
           id="tspan512"><tspan
             style="font-size:20px"
             id="tspan496">I</tspan><tspan
             style="font-family:Abel;-inkscape-font-specification:Abel"
             id="tspan498">nternational </tspan><tspan
             style="font-size:20px"
             id="tspan500">A</tspan><tspan
             style="font-family:Abel;-inkscape-font-specification:Abel"
             id="tspan502">ssociation of </tspan><tspan
             style="font-size:20px"
             id="tspan504">C</tspan><tspan
             style="font-family:Abel;-inkscape-font-specification:Abel"
             id="tspan506">omputing and </tspan><tspan
             style="font-size:20px"
             id="tspan508">P</tspan><tspan
             style="font-family:Abel;-inkscape-font-specification:Abel"
             id="tspan510">hilosophy</tspan></tspan></text></g><path
       d="M 10.008597,41.252981 V 11.773779 h 2.651894 v 29.479202 z"
       id="path13256"
       style="font-size:42.1014px;line-height:1.25;font-family:Abel;-inkscape-font-specification:Abel;letter-spacing:0px;word-spacing:0px;stroke-width:0.15788" /><g
       id="g25524"
       transform="translate(-3.9792764,-48.158915)"><path
         d="m 35.500743,82.54575 h -9.333025 l -1.932388,6.866146 h -2.754682 l 8.634076,-29.479202 h 1.397898 l 8.675191,29.479202 h -2.734124 z m -8.613519,-2.528551 h 7.91457 L 30.91646,66.428808 30.83423,65.33927 30.752,66.428808 Z"
         id="path13311"
         style="font-size:42.1014px;line-height:1.25;font-family:Abel;-inkscape-font-specification:Abel;letter-spacing:0px;word-spacing:0px;stroke-width:0.15788" /><path
         style="fill:#ffffff;stroke:#ffffff;stroke-width:0.05;stroke-linecap:butt;stroke-linejoin:miter;stroke-miterlimit:4;stroke-dasharray:none;stroke-opacity:1"
         d="m 26.167718,82.54575 0.719506,-2.528551 7.91457,-1e-6 0.698949,2.528552 z"
         id="path13859"
         sodipodi:nodetypes="ccccc" /></g><g
       id="g25514"
       transform="translate(-2.9209429,-48.158915)"><path
         d="m 77.088208,82.54575 h -9.333025 l -1.932388,6.866146 h -2.754681 l 8.634075,-29.479202 h 1.397898 l 8.675191,29.479202 H 79.041154 Z M 68.47469,80.017199 h 7.914569 l -3.885334,-13.588391 -0.08223,-1.089538 -0.08223,1.089538 z"
         id="path13262"
         style="font-size:42.1014px;line-height:1.25;font-family:Abel;-inkscape-font-specification:Abel;letter-spacing:0px;word-spacing:0px;stroke-width:0.15788" /><path
         style="fill:#ffffff;stroke:#ffffff;stroke-width:0.05;stroke-linecap:butt;stroke-linejoin:miter;stroke-miterlimit:4;stroke-dasharray:none;stroke-opacity:1"
         d="m 67.755184,82.54575 0.719506,-2.528551 7.91457,-1e-6 0.698949,2.528552 z"
         id="path14460"
         sodipodi:nodetypes="ccccc" /></g><g
       id="g25520"
       transform="translate(-3.4501097,-48.158915)"><path
         d="m 60.128416,82.586864 q 0,1.500685 -0.575605,2.816354 -0.555048,1.315668 -1.541799,2.30242 -0.986752,0.986751 -2.30242,1.562356 -1.315669,0.555048 -2.816354,0.555048 h -2.096847 q -1.500684,0 -2.83691,-0.555048 -1.315669,-0.575605 -2.30242,-1.562356 -0.986752,-0.986752 -1.562357,-2.30242 -0.555048,-1.315669 -0.555048,-2.816354 V 66.757725 q 0,-1.500684 0.555048,-2.816353 0.575605,-1.315669 1.562357,-2.30242 0.986751,-0.986752 2.30242,-1.5418 1.336226,-0.575605 2.83691,-0.575605 h 2.096847 q 1.500685,0 2.816354,0.575605 1.315668,0.555048 2.30242,1.5418 0.986751,0.986751 1.541799,2.30242 0.575605,1.315669 0.575605,2.816353 v 1.192325 l -2.651894,0.411147 v -1.603472 q 0,-0.986751 -0.370032,-1.829602 -0.370032,-0.863407 -1.007309,-1.500684 -0.637277,-0.637277 -1.500685,-1.007309 -0.84285,-0.370032 -1.829602,-0.370032 h -1.850159 q -0.986751,0 -1.850159,0.370032 -0.84285,0.370032 -1.500684,1.007309 -0.637277,0.637277 -1.007309,1.500684 -0.370032,0.842851 -0.370032,1.829602 v 15.829139 q 0,0.986752 0.370032,1.850159 0.370032,0.842851 1.007309,1.500685 0.657834,0.637277 1.500684,1.007309 0.863408,0.370032 1.850159,0.370032 h 1.850159 q 0.986752,0 1.829602,-0.370032 0.863408,-0.370032 1.500685,-1.007309 0.637277,-0.657834 1.007309,-1.500685 0.370032,-0.863407 0.370032,-1.850159 v -1.603471 l 2.651894,0.431704 z"
         id="path13260"
         style="font-size:42.1014px;line-height:1.25;font-family:Abel;-inkscape-font-specification:Abel;letter-spacing:0px;word-spacing:0px;fill:#000000;stroke:#000000;stroke-width:0.15788" /><circle
         style="fill:#ffffff;stroke:#000000;stroke-width:2;stroke-linecap:round;stroke-linejoin:round;stroke-miterlimit:4;stroke-dasharray:none;stroke-opacity:1;paint-order:stroke fill markers"
         id="path14528"
         cx="58.815296"
         cy="68.452065"
         r="2.6559741" /><circle
         style="fill:#ffffff;stroke:#000000;stroke-width:2;stroke-linecap:round;stroke-linejoin:round;stroke-miterlimit:4;stroke-dasharray:none;stroke-opacity:1;paint-order:stroke fill markers"
         id="circle14624"
         cx="58.909218"
         cy="80.232101"
         r="2.6559741" /><circle
         style="fill:#000000;stroke:#000000;stroke-width:2;stroke-linecap:round;stroke-linejoin:round;stroke-miterlimit:4;stroke-dasharray:none;stroke-opacity:1;paint-order:stroke fill markers"
         id="circle14662"
         cx="44.857979"
         cy="80.232101"
         r="2.6559741" /></g><g
       id="g25452"
       transform="translate(-2.9209432,-48.158915)"><path
         d="m 102.14759,70.848633 q 0,1.500684 -0.57561,2.816353 -0.55505,1.315669 -1.5418,2.30242 -0.986747,0.986752 -2.322977,1.562357 -1.31567,0.555048 -2.81635,0.555048 H 88.20972 V 89.411896 H 85.557825 V 59.932694 h 9.333028 q 1.50068,0 2.81635,0.575605 1.33623,0.555048 2.322977,1.541799 0.98675,0.986752 1.5418,2.322978 0.57561,1.315668 0.57561,2.816353 z m -2.651897,-3.659204 q 0,-0.986751 -0.37003,-1.829602 -0.37004,-0.863407 -1.02787,-1.500684 -0.63728,-0.657835 -1.50069,-1.027866 -0.84285,-0.370032 -1.8296,-0.370032 H 88.20972 V 75.55626 h 6.557783 q 0.98675,0 1.8296,-0.370032 0.86341,-0.370032 1.50069,-1.007309 0.65783,-0.637277 1.02787,-1.480127 0.37003,-0.863408 0.37003,-1.850159 z"
         id="path13264"
         style="font-size:42.1014px;line-height:1.25;font-family:Abel;-inkscape-font-specification:Abel;letter-spacing:0px;word-spacing:0px;stroke-width:0.15788" /><rect
         style="fill:#ffffff;stroke:#ffffff;stroke-width:0.02;stroke-linecap:round;stroke-linejoin:round;stroke-miterlimit:4;stroke-dasharray:none;stroke-opacity:1;paint-order:stroke fill markers"
         id="rect14742"
         width="2.651895"
         height="2.5285511"
         x="88.203659"
         y="59.932693" /><rect
         style="fill:#ffffff;stroke:#ffffff;stroke-width:0.02;stroke-linecap:round;stroke-linejoin:round;stroke-miterlimit:4;stroke-dasharray:none;stroke-opacity:1;paint-order:stroke fill markers"
         id="rect14846"
         width="2.651895"
         height="2.5285511"
         x="88.209717"
         y="75.556259" /><circle
         style="fill:#ffffff;stroke:#000000;stroke-width:2;stroke-linecap:round;stroke-linejoin:round;stroke-miterlimit:4;stroke-dasharray:none;stroke-opacity:1;paint-order:stroke fill markers"
         id="circle14848"
         cx="94.180374"
         cy="61.675533"
         r="2.6559741" /><circle
         style="fill:#000000;stroke:#000000;stroke-width:2;stroke-linecap:round;stroke-linejoin:round;stroke-miterlimit:4;stroke-dasharray:none;stroke-opacity:1;paint-order:stroke fill markers"
         id="circle14850"
         cx="94.180374"
         cy="76.691109"
         r="2.6559741" /></g></g></svg>
