<?xml version="1.0" encoding="UTF-8" standalone="no"?>
<!-- Created with Inkscape (http://www.inkscape.org/) -->

<svg
   width="100mm"
   height="40mm"
   viewBox="0 0 99.999992 39.999999"
   version="1.1"
   id="svg5"
   xml:space="preserve"
   inkscape:version="1.4.2 (ebf0e940d0, 2025-05-08)"
   sodipodi:docname="iacap-square.svg"
   inkscape:export-filename="iacap-black.png"
   inkscape:export-xdpi="600"
   inkscape:export-ydpi="600"
   xmlns:inkscape="http://www.inkscape.org/namespaces/inkscape"
   xmlns:sodipodi="http://sodipodi.sourceforge.net/DTD/sodipodi-0.dtd"
   xmlns="http://www.w3.org/2000/svg"
   xmlns:svg="http://www.w3.org/2000/svg"><sodipodi:namedview
     id="namedview7"
     pagecolor="#ffffff"
     bordercolor="#000000"
     borderopacity="0.25"
     inkscape:showpageshadow="2"
     inkscape:pageopacity="0.0"
     inkscape:pagecheckerboard="0"
     inkscape:deskcolor="#d1d1d1"
     inkscape:document-units="mm"
     showgrid="false"
     showguides="true"
     inkscape:zoom="2.5534308"
     inkscape:cx="71.472468"
     inkscape:cy="110.63546"
     inkscape:window-width="2560"
     inkscape:window-height="1374"
     inkscape:window-x="0"
     inkscape:window-y="0"
     inkscape:window-maximized="1"
     inkscape:current-layer="layer1"><sodipodi:guide
       position="-14.525199,46.322856"
       orientation="0,793.70079"
       id="guide450"
       inkscape:locked="false" /><sodipodi:guide
       position="195.4748,46.322856"
       orientation="1122.5197,0"
       id="guide452"
       inkscape:locked="false" /><sodipodi:guide
       position="195.4748,-250.67713"
       orientation="0,-793.70079"
       id="guide454"
       inkscape:locked="false" /><sodipodi:guide
       position="-14.525199,-250.67713"
       orientation="-1122.5197,0"
       id="guide456"
       inkscape:locked="false" /><sodipodi:guide
       position="87.149011,34.609255"
       orientation="0,-1"
       id="guide458"
       inkscape:locked="false" /><sodipodi:guide
       position="84.923415,5.3252082"
       orientation="0,-1"
       id="guide460"
       inkscape:locked="false" /><sodipodi:guide
       position="99.916848,-1.9372349"
       orientation="0,-1"
       id="guide462"
       inkscape:locked="false" /><sodipodi:guide
       position="-4.5516849,-26.827598"
       orientation="1,0"
       id="guide208"
       inkscape:locked="false" /><sodipodi:guide
       position="85.05749,-13.474071"
       orientation="1,0"
       id="guide239"
       inkscape:locked="false" /><sodipodi:guide
       position="32.327416,-18.116383"
       orientation="0,-1"
       id="guide2076"
       inkscape:locked="false" /></sodipodi:namedview><defs
     id="defs2"><rect
       x="37.98811"
       y="196.59825"
       width="308.2128"
       height="41.121147"
       id="rect258" /><rect
       x="69.058022"
       y="272.38824"
       width="557.039"
       height="101.38917"
       id="rect1794" /></defs><g
     inkscape:label="Layer 1"
     inkscape:groupmode="layer"
     id="layer1"
     transform="translate(-14.5252,-65.417467)"><g
       id="g3"
       transform="translate(5.39099,4.0587895)"><text
         xml:space="preserve"
         transform="matrix(0.26458333,0,0,0.26458333,-0.36598069,25.428846)"
         id="text256"
         style="white-space:pre;shape-inside:url(#rect258);display:inline;fill:#000000" /><path
         d="M 14.5252,96.809803 V 67.330601 h 2.651886 v 29.479202 z"
         id="path13256"
         style="font-size:42.1014px;line-height:1.25;font-family:Abel;-inkscape-font-specification:Abel;letter-spacing:0px;word-spacing:0px;stroke-width:0.15788" /><path
         id="path13311"
         style="font-size:42.1014px;line-height:1.25;font-family:Abel;-inkscape-font-specification:Abel;letter-spacing:0px;word-spacing:0px;stroke-width:0.15788"
         d="m 30.652074,67.330547 -8.634099,29.479337 h 2.754871 l 1.932182,-6.866247 0.719336,-2.528528 3.86488,-13.588318 0.08217,-1.089856 0.08216,1.089856 3.885551,13.588318 0.698665,2.528528 1.95337,6.866247 h 2.733683 L 32.049921,67.330547 Z" /><path
         id="path13262"
         style="font-size:42.1014px;line-height:1.25;font-family:Abel;-inkscape-font-specification:Abel;letter-spacing:0px;word-spacing:0px;stroke-width:0.15788"
         d="m 73.297533,67.330547 -8.634099,29.479337 h 2.754871 l 1.932182,-6.866247 0.719852,-2.528528 3.864364,-13.588318 0.08268,-1.089856 0.08217,1.089856 3.885034,13.588318 0.699182,2.528528 1.952853,6.866247 h 2.7342 L 74.69538,67.330547 Z" /><g
         id="g25520"
         transform="matrix(0.99999699,0,0,1,1.0665331,7.397907)"><path
           d="m 60.128416,82.586864 q 0,1.500685 -0.575605,2.816354 -0.555048,1.315668 -1.541799,2.30242 -0.986752,0.986751 -2.30242,1.562356 -1.315669,0.555048 -2.816354,0.555048 h -2.096847 q -1.500684,0 -2.83691,-0.555048 -1.315669,-0.575605 -2.30242,-1.562356 -0.986752,-0.986752 -1.562357,-2.30242 -0.555048,-1.315669 -0.555048,-2.816354 V 66.757725 q 0,-1.500684 0.555048,-2.816353 0.575605,-1.315669 1.562357,-2.30242 0.986751,-0.986752 2.30242,-1.5418 1.336226,-0.575605 2.83691,-0.575605 h 2.096847 q 1.500685,0 2.816354,0.575605 1.315668,0.555048 2.30242,1.5418 0.986751,0.986751 1.541799,2.30242 0.575605,1.315669 0.575605,2.816353 v 1.192325 l -2.651894,0.411147 v -1.603472 q 0,-0.986751 -0.370032,-1.829602 -0.370032,-0.863407 -1.007309,-1.500684 -0.637277,-0.637277 -1.500685,-1.007309 -0.84285,-0.370032 -1.829602,-0.370032 h -1.850159 q -0.986751,0 -1.850159,0.370032 -0.84285,0.370032 -1.500684,1.007309 -0.637277,0.637277 -1.007309,1.500684 -0.370032,0.842851 -0.370032,1.829602 v 15.829139 q 0,0.986752 0.370032,1.850159 0.370032,0.842851 1.007309,1.500685 0.657834,0.637277 1.500684,1.007309 0.863408,0.370032 1.850159,0.370032 h 1.850159 q 0.986752,0 1.829602,-0.370032 0.863408,-0.370032 1.500685,-1.007309 0.637277,-0.657834 1.007309,-1.500685 0.370032,-0.863407 0.370032,-1.850159 v -1.603471 l 2.651894,0.431704 z"
           id="path13260"
           style="font-size:42.1014px;line-height:1.25;font-family:Abel;-inkscape-font-specification:Abel;letter-spacing:0px;word-spacing:0px;fill:#000000;stroke:#000000;stroke-width:0.15788" /><path
           id="path14528"
           style="fill:#ffffff;stroke:#000000;stroke-width:2;stroke-linecap:round;stroke-linejoin:round;paint-order:stroke fill markers"
           d="m 61.47127,68.452065 a 2.6559741,2.6559741 0 0 1 -2.655974,2.655974 2.6559741,2.6559741 0 0 1 -2.655974,-2.655974 2.6559741,2.6559741 0 0 1 2.655974,-2.655975 2.6559741,2.6559741 0 0 1 2.655974,2.655975 z" /><path
           id="circle14624"
           style="fill:#ffffff;stroke:#000000;stroke-width:2;stroke-linecap:round;stroke-linejoin:round;paint-order:stroke fill markers"
           d="m 61.565192,80.232101 a 2.6559741,2.6559741 0 0 1 -2.655974,2.655975 2.6559741,2.6559741 0 0 1 -2.655974,-2.655975 2.6559741,2.6559741 0 0 1 2.655974,-2.655974 2.6559741,2.6559741 0 0 1 2.655974,2.655974 z" /><path
           id="circle14662"
           style="stroke:#000000;stroke-width:2;stroke-linecap:round;stroke-linejoin:round;paint-order:stroke fill markers"
           d="m 47.513953,80.232101 a 2.6559741,2.6559741 0 0 1 -2.655974,2.655975 2.6559741,2.6559741 0 0 1 -2.655974,-2.655975 2.6559741,2.6559741 0 0 1 2.655974,-2.655974 2.6559741,2.6559741 0 0 1 2.655974,2.655974 z" /></g><path
         id="path13264"
         style="font-size:42.1014px;line-height:1.25;font-family:Abel;-inkscape-font-specification:Abel;letter-spacing:0px;word-spacing:0px;stroke-width:0.15788"
         d="m 87.153018,67.330547 v 29.479337 h 2.652034 V 85.482927 82.954399 69.859075 h -0.0062 v -2.528528 z m 5.297867,0 v 2.528528 h 3.911906 c 0.657832,0 1.267965,0.123315 1.829863,0.370003 0.575605,0.246687 1.075831,0.589287 1.500683,1.027844 0.438553,0.424851 0.781153,0.925079 1.027843,1.500684 0.24669,0.5619 0.37,1.172028 0.37,1.829862 v 3.659208 c 0,0.657834 -0.12331,1.274411 -0.37,1.850017 -0.24669,0.5619 -0.58929,1.055161 -1.027843,1.480013 -0.424852,0.424851 -0.925078,0.760485 -1.500683,1.007173 -0.561898,0.246688 -1.172031,0.37052 -1.829863,0.37052 h -3.905704 v 2.528528 h 4.029211 c 1.000451,0 1.939255,-0.184973 2.816366,-0.555005 0.890816,-0.383736 1.665026,-0.90486 2.322856,-1.562695 0.65783,-0.657834 1.17199,-1.425072 1.54202,-2.302185 0.38374,-0.877113 0.57568,-1.81591 0.57568,-2.816366 v -3.659208 c 0,-1.000456 -0.19194,-1.939253 -0.57568,-2.816365 -0.37003,-0.890818 -0.88419,-1.665021 -1.54202,-2.322856 -0.65783,-0.657834 -1.43204,-1.171993 -2.322856,-1.542025 -0.877111,-0.383736 -1.815915,-0.575675 -2.816366,-0.575675 z" /><path
         id="circle14848"
         style="fill:#ffffff;stroke:#000000;stroke-width:2;stroke-linecap:round;stroke-linejoin:round;paint-order:stroke fill markers"
         d="m 98.431755,69.07344 a 2.6559661,2.6559741 0 0 1 -2.655966,2.655974 2.6559661,2.6559741 0 0 1 -2.655966,-2.655974 2.6559661,2.6559741 0 0 1 2.655966,-2.655974 2.6559661,2.6559741 0 0 1 2.655966,2.655974 z" /><path
         id="circle14850"
         style="stroke:#000000;stroke-width:2;stroke-linecap:round;stroke-linejoin:round;paint-order:stroke fill markers"
         d="m 98.431755,84.089016 a 2.6559661,2.6559741 0 0 1 -2.655966,2.655974 2.6559661,2.6559741 0 0 1 -2.655966,-2.655974 2.6559661,2.6559741 0 0 1 2.655966,-2.655974 2.6559661,2.6559741 0 0 1 2.655966,2.655974 z" /></g></g></svg>
